# xmcd
#
# Track frame offsets: 
#        150
#        22323
#        37830
#        57624
#        73783
#        94854
#        113960
#        134334
#        150532
#        167690
#        182539
#        189006
#        202783
#        214430
#        226772
#        238674
#        254169
#
# Disc length: 3558 seconds
#
# Revision: 0
# Processed by: cddbd v1.5.2PL0 Copyright (c) Steve Scherf et al.
# Submitted via: ExactAudioCopyFreeDBPlugin 1.0
#
DISCID=ef0de411
DTITLE=Esham - The Remastered EP Collection (1991 - 1994)
DYEAR=2016
DGENRE=Acid Rap
TTITLE0=Homie Don't Play
TTITLE1=Some Old Wicked Shit!!!
TTITLE2=Out'cha Mind
TTITLE3=Crewzin Down 7 Mile
TTITLE4=Erotic Poetry
TTITLE5=The Jaw Bone
TTITLE6=The Real Feel
TTITLE7=Pleaze
TTITLE8=Hellterskkkellter
TTITLE9=Rocks Off!
TTITLE10=Be-4
TTITLE11=Devil's Night
TTITLE12=Comin Out a Coma
TTITLE13=Maggot Brain Theory
TTITLE14=Traces of My Bloodtype
TTITLE15=Stop Diggin' on da D-L
TTITLE16=I Know You Hate Me
EXTD=
EXTT0=
EXTT1=
EXTT2=
EXTT3=
EXTT4=
EXTT5=
EXTT6=
EXTT7=
EXTT8=
EXTT9=
EXTT10=
EXTT11=
EXTT12=
EXTT13=
EXTT14=
EXTT15=
EXTT16=
PLAYORDER=
